<?xml version="1.0" encoding="UTF-8"?><svg id="a" xmlns="http://www.w3.org/2000/svg" xmlns:xlink="http://www.w3.org/1999/xlink" viewBox="0 0 234.16 239.73"><defs><style>.k{stroke-width:.65px;}.k,.l{fill:none;stroke:#88bd6d;stroke-linecap:round;stroke-linejoin:round;}.m{fill:url(#c);}.m,.n,.o,.p,.q,.r,.s,.t,.u,.v,.w,.x,.y,.z,.aa,.ab,.ac,.ad,.ae,.af,.ag,.ah,.ai,.aj,.ak,.al,.am,.an{stroke-width:0px;}.n{fill:#d68e4f;}.o{fill:#ba8a60;}.p,.ah{fill:#ff7c4f;}.q{fill:#ade68f;}.r{fill:#f5b670;}.ao,.am{opacity:.31;}.ap,.ah{opacity:.5;}.s{fill:url(#e);}.aq{fill:#c0c2c4;font-family:MVBoli, 'MV Boli';font-size:66.14px;}.t{fill:url(#g);}.u{fill:url(#i);}.v{fill:#e3a866;}.w{fill:url(#b);}.x,.am{fill:#874732;}.y{fill:#a87c56;}.z{fill:#f0f0f0;}.aa{fill:#fcd4a9;}.ab{fill:url(#h);}.ac{fill:#ffd6a8;}.ad{fill:#fff;}.ae{fill:#88bd6d;}.l{stroke-width:.75px;}.af{fill:#fffbf7;}.ag{fill:url(#d);}.ar{opacity:.55;}.ai{fill:#e3a874;}.aj{fill:url(#f);}.ak{fill:#ff915e;}.al{fill:#fce4ca;}.an{opacity:.1;}</style><linearGradient id="b" x1="19.25" y1="130.32" x2="22.01" y2="159.12" gradientTransform="translate(41.73 2.78) rotate(15.36)" gradientUnits="userSpaceOnUse"><stop offset="0" stop-color="#a1d685"/><stop offset="1" stop-color="#71c782"/></linearGradient><linearGradient id="c" x1="9.45" y1="136.02" x2="11.87" y2="161.27" gradientUnits="userSpaceOnUse"><stop offset=".11" stop-color="#a1d685"/><stop offset="1" stop-color="#71c782"/></linearGradient><linearGradient id="d" x1="1.77" y1="164.8" x2="31.28" y2="164.8" gradientUnits="userSpaceOnUse"><stop offset="0" stop-color="#805e41"/><stop offset="1" stop-color="#a87c56"/></linearGradient><linearGradient id="e" x1="203.99" y1="218.96" x2="193.52" y2="167.14" gradientTransform="translate(-12.49 26.7) rotate(-4.42)" gradientUnits="userSpaceOnUse"><stop offset="0" stop-color="#ffda5e"/><stop offset="1" stop-color="#e89540"/></linearGradient><linearGradient id="f" x1="138.1" y1="165.51" x2="138.1" y2="226.77" gradientTransform="matrix(1,0,0,1,0,0)" xlink:href="#e"/><linearGradient id="g" x1="82.2" y1="73.12" x2="82.2" y2="121.7" gradientTransform="translate(-38.53 94.13) rotate(-26.38)" xlink:href="#e"/><linearGradient id="h" x1="464.85" y1="156.06" x2="464.85" y2="204.63" gradientTransform="translate(562.47 -58.93) rotate(177.91) scale(1 -1)" xlink:href="#e"/><linearGradient id="i" x1="92.04" y1="140.68" x2="92.04" y2="230.64" gradientTransform="translate(-32.64 26.66) rotate(-14.23)" xlink:href="#e"/></defs><polygon class="z" points="202.4 129.25 16.27 125.6 18.44 14.83 49.74 0 204.88 3.05 202.4 129.25"/><polygon class="al" points="203.65 127.44 17.49 127.44 17.49 17.46 50.86 1.21 203.65 1.21 203.65 127.44"/><polygon class="aa" points="191.15 118.08 28.15 115.97 30.63 17.33 42.74 8.74 192.99 10.92 191.15 118.08"/><polygon class="ad" points="192.99 115.97 28.15 115.97 28.15 19.33 38.11 10.92 192.99 10.92 192.99 115.97"/><path class="an" d="m17.49,17.46l13.47,8.7c.62.4,1.45.25,1.89-.35L50.86,1.21,17.49,17.46Z"/><path class="aa" d="m17.49,17.46l13.34,5.83c.91.4,1.97.14,2.59-.63L50.86,1.21,17.49,17.46Z"/><text class="aq" transform="translate(41.69 87.25)"><tspan x="0" y="0">404</tspan></text><circle class="an" cx="193.82" cy="11.63" r="3.19"/><circle class="v" cx="193.53" cy="10.92" r="3.19"/><path class="r" d="m195.33,10.92c0,.99-.8,1.8-1.8,1.8s-1.8-.8-1.8-1.8.8-1.8,1.8-1.8,1.8.8,1.8,1.8Z"/><path class="ac" d="m193.72,9.33c.47,0,.89.18,1.21.47-.33-.41-.83-.68-1.4-.68-.99,0-1.8.8-1.8,1.8,0,.53.23.99.59,1.32-.25-.31-.4-.69-.4-1.12,0-.99.8-1.8,1.8-1.8Z"/><circle class="an" cx="195.47" cy="120.34" r="3.19"/><circle class="v" cx="195.18" cy="119.63" r="3.19"/><path class="r" d="m196.98,119.63c0,.99-.8,1.8-1.8,1.8s-1.8-.8-1.8-1.8.8-1.8,1.8-1.8,1.8.8,1.8,1.8Z"/><path class="ac" d="m195.37,118.04c.47,0,.89.18,1.21.47-.33-.41-.83-.68-1.4-.68-.99,0-1.8.8-1.8,1.8,0,.53.23.99.59,1.32-.25-.31-.4-.69-.4-1.12,0-.99.8-1.8,1.8-1.8Z"/><circle class="an" cx="28.3" cy="116.8" r="3.19"/><circle class="v" cx="28.01" cy="116.09" r="3.19"/><path class="r" d="m29.81,116.09c0,.99-.8,1.8-1.8,1.8s-1.8-.8-1.8-1.8.8-1.8,1.8-1.8,1.8.8,1.8,1.8Z"/><path class="ac" d="m28.2,114.5c.47,0,.89.18,1.21.47-.33-.41-.83-.68-1.4-.68-.99,0-1.8.8-1.8,1.8,0,.53.23.99.59,1.32-.25-.31-.4-.69-.4-1.12,0-.99.8-1.8,1.8-1.8Z"/><path class="w" d="m17.23,170.98s-2.21-26.57,1.73-32.62c3.66-5.63,13.54-2.88,11.6,6.19-1.26,5.89-6.95,25.73-6.95,25.73l-6.38.71Z"/><path class="q" d="m21.13,138.95c1.42-2.18,3.77-3.1,6.01-2.88-2.73-1.29-6.28-.63-8.18,2.29-3.94,6.05-1.73,32.62-1.73,32.62l2.11-.23c-.33-4.51-1.73-26.38,1.79-31.79Z"/><line class="k" x1="21.07" y1="137.07" x2="19.97" y2="134.9"/><line class="k" x1="25.23" y1="136.35" x2="25.45" y2="133.92"/><line class="k" x1="28.5" y1="138.18" x2="29.62" y2="136.01"/><line class="k" x1="30" y1="141.09" x2="31.74" y2="139.39"/><line class="k" x1="27.89" y1="149.8" x2="30.23" y2="150.47"/><line class="k" x1="27.12" y1="153.93" x2="29.44" y2="153.17"/><line class="k" x1="26.46" y1="156.62" x2="28.12" y2="156.87"/><line class="k" x1="29.9" y1="144.11" x2="31.79" y2="143.15"/><line class="k" x1="28.83" y1="147.12" x2="30.95" y2="147.09"/><line class="k" x1="19.88" y1="139.57" x2="17.86" y2="138.21"/><path class="m" d="m10.15,167.49S-.36,138.76,2.15,130.88c2.34-7.34,14.11-7.3,14.71,3.32.4,6.9.12,30.57.12,30.57l-6.84,2.72Z"/><path class="q" d="m4.74,130.88c.91-2.84,3.23-4.57,5.77-5.01-3.41-.6-7.14,1.22-8.36,5.01-2.52,7.89,8,36.61,8,36.61l2.26-.9c-1.74-4.89-9.93-28.65-7.67-35.72Z"/><line class="l" x1="3.64" y1="141.53" x2="1.31" y2="141.53"/><line class="l" x1="4.55" y1="146.38" x2="1.77" y2="146.62"/><line class="l" x1="5.85" y1="150.85" x2="3.25" y2="151.85"/><line class="l" x1="4.1" y1="128.82" x2="2.22" y2="126.75"/><line class="l" x1="8.48" y1="126.75" x2="7.99" y2="123.99"/><line class="l" x1="12.66" y1="127.78" x2="13.23" y2="125.04"/><line class="l" x1="15.2" y1="130.55" x2="16.61" y2="128.13"/><line class="l" x1="15.51" y1="140.83" x2="18.3" y2="140.86"/><line class="l" x1="15.92" y1="145.62" x2="18.25" y2="144.08"/><line class="l" x1="16" y1="148.8" x2="17.91" y2="148.57"/><line class="l" x1="16" y1="133.92" x2="17.81" y2="132.28"/><line class="l" x1="15.74" y1="137.57" x2="18.08" y2="136.89"/><line class="l" x1="3.54" y1="131.94" x2=".89" y2="131.05"/><line class="l" x1="3.16" y1="135.58" x2=".38" y2="135.87"/><circle class="ae" cx="6.36" cy="131.88" r=".51"/><path class="ae" d="m11.39,134.26c0,.47-.38.85-.85.85s-.85-.38-.85-.85.38-.85.85-.85.85.38.85.85Z"/><path class="ae" d="m14.57,143.33c-.54.74-1.59.9-2.33.36s-.9-1.59-.36-2.33,1.59-.9,2.33-.36.9,1.59.36,2.33Z"/><path class="ae" d="m11.53,149.9c-.38.52-1.03.7-1.44.4-.41-.3-.43-.97-.05-1.49s1.03-.7,1.44-.4c.41.3.43.97.05,1.49Z"/><circle class="ae" cx="8.71" cy="137.62" r=".73"/><polygon class="y" points="1.77 162.47 4.22 190.02 7.89 190.02 7.63 188.59 14.27 188.59 14.4 190.02 20.07 190.02 20.38 188.59 25.58 188.59 25.51 190.02 28.82 190.02 31.28 162.47 1.77 162.47"/><polygon class="o" points="6.75 162.47 1.77 162.47 4.22 190.02 7.89 190.02 7.63 188.59 9.54 188.59 6.75 162.47"/><polygon class="ag" points="2.03 165.4 30.86 167.12 31.28 162.47 1.77 162.47 2.03 165.4"/><polygon class="n" points="31.71 164.84 32.16 159.82 .89 159.82 1.33 164.84 31.71 164.84"/><polygon class="ai" points="5.8 159.82 .89 159.82 1.33 164.84 6.4 164.84 5.8 159.82"/><path class="s" d="m203.99,239.63c-11.71.91-23.05-3.95-30.7-13.47-1.9-2.37-1.52-5.82.84-7.73,2.36-1.9,5.82-1.52,7.73.84,7.56,9.42,18.37,10.61,25.95,8.6,8.2-2.18,13.81-7.98,15-15.51,1.9-12.03-4.16-21.46-9.52-29.77-2.99-4.64-5.57-8.65-6.51-12.78-.67-2.96,1.18-5.9,4.15-6.57,2.96-.67,5.9,1.18,6.57,4.14.51,2.23,2.7,5.65,5.03,9.26,5.78,8.97,13.69,21.27,11.13,37.44-1.86,11.78-10.69,21.13-23.03,24.42-2.21.59-4.44.96-6.65,1.14Z"/><path class="aj" d="m213.62,146.44c-12.68-21.75-45.38-22.54-60.44-16.6-15.06,5.95-35.94,14.37-40.36,14.07-20.08-1.36-46.38,21.6-46.38,21.6,0,0-9.57,5.95-9.57,14.07s4.67,10.3,9.57,10.3h88.56c-2.75,1.15-5.41,2.66-4.89,4.06,1.19,3.18,7.7,3.57,13.92,2.24,5.55-1.19,41.79-1.46,49.69-11.15,9.12-11.17,5.69-28.67-.1-38.59Z"/><path class="am" d="m125.89,140.34l-59.46,25.17s4.28,13.16,23.13,16.36c0,0-.02,0-.02,0,4.2.48,7.9,4.31,7.72,8.01h4.72s1.2-6.73,8.71-8.59c0,0,0,0,0-.01,29.48-6.2,15.19-40.94,15.19-40.94Z"/><path class="t" d="m66.96,146.14s-8.62-15.32-8.23-29.79c.05-1.78,1.67-3.1,3.42-2.76,4.2.82,11.85,3.43,18.63,11.72l-13.82,20.83Z"/><path class="ah" d="m68.01,138.41s-5.13-9.12-4.9-17.73c.03-1.06.99-1.84,2.03-1.64,2.5.49,7.05,2.04,11.09,6.97l-8.22,12.39Z"/><path class="ab" d="m115.18,133.91s.27-17.58-6.96-30.11c-.89-1.54-2.95-1.93-4.32-.79-3.3,2.72-8.78,8.66-10.79,19.19l22.08,11.72Z"/><path class="ah" d="m110.57,127.62s.16-10.46-4.14-17.92c-.53-.92-1.75-1.15-2.57-.47-1.96,1.62-5.23,5.15-6.42,11.42l13.14,6.97Z"/><path class="u" d="m85.9,119.66c-17.4,4.42-26.75,25.67-20.44,43.12,6.32,17.45,24.3,16.82,34.96,14.12,10.65-2.7,26.76-10.73,24-29.08-2.77-18.35-21.12-32.58-38.52-28.16Z"/><path class="af" d="m105.58,155.37c1.06,4.19-3.48,5.02-8.99,6.42s-9.9,2.83-10.97-1.36c-1.06-4.19,2.54-8.72,8.06-10.11s10.84.86,11.9,5.05Z"/><path class="x" d="m106.65,138.68c-3.58-.22-7.02,1.37-9.16,4.26-.99,1.33.91,3.11,1.91,1.77,1.78-2.4,4.33-3.6,7.32-3.42,1.68.1,1.59-2.5-.07-2.6Z"/><path class="x" d="m77.49,146.08c3.04-1.9,6.83-2.14,10.08-.62,1.5.7.68,3.17-.84,2.46-2.7-1.26-5.53-1.1-8.06.48-1.42.89-2.59-1.44-1.18-2.32Z"/><path class="x" d="m95.48,157.4c-2.94.74-5.37-.82-5.54-2.68-.17-1.86,1.98-2.29,4.14-2.84,2.16-.55,4.25-1.19,4.99.52s-.66,4.25-3.59,5Z"/><g class="ar"><path class="ak" d="m85.14,155.49c.84,3.3-1.16,6.66-4.47,7.5s-6.66-1.16-7.5-4.47,1.16-6.66,4.47-7.5,6.66,1.16,7.5,4.47Z"/><path class="ak" d="m115.62,147.76c.84,3.3-1.16,6.66-4.47,7.5-3.3.84-6.66-1.16-7.5-4.47-.84-3.3,1.16-6.66,4.47-7.5,3.3-.84,6.66,1.16,7.5,4.47Z"/></g><path class="x" d="m68.96,160.54c-.14.04-.3.02-.44-.07-.25-.17-.32-.5-.16-.76,2.48-3.81,7.38-3.78,7.59-3.78.3,0,.55.25.54.56,0,.3-.24.56-.56.54-.04,0-4.51,0-6.66,3.28-.08.12-.2.2-.32.23Z"/><path class="x" d="m72.91,164.99c-.11.03-.22.02-.33-.02-.28-.11-.43-.42-.32-.71,1.17-3.14,4.63-4.9,4.78-4.97.29-.14.6-.02.74.25.14.27.03.6-.25.74-.03.02-3.22,1.64-4.24,4.37-.07.17-.21.3-.38.34Z"/><path class="x" d="m120.28,147.52c-.13.03-.27.02-.4-.05-3.47-1.88-7.38.26-7.42.29-.25.16-.6.06-.75-.21-.15-.26-.05-.6.21-.75.18-.1,4.49-2.45,8.47-.3.27.15.37.48.22.74-.08.14-.2.23-.35.27Z"/><path class="x" d="m118.93,153.31c-.17.04-.35,0-.49-.12-2.2-1.92-5.77-1.82-5.81-1.82-.3.01-.56-.23-.57-.53-.01-.3.21-.56.53-.57.16,0,4.04-.11,6.57,2.09.23.2.25.54.05.77-.08.09-.17.14-.28.17Z"/><g class="ao"><path class="x" d="m98.11,166.42c-2.37.6-4.57.16-4.71.13-.32-.07-.53-.38-.46-.7.07-.32.39-.53.7-.46.05.01,4.56.9,7.19-1.8.23-.24.61-.24.84-.01.24.23.24.61.01.84-1.06,1.09-2.35,1.69-3.58,2Z"/></g><g class="ap"><path class="p" d="m152.9,129.95c2.23,4.21,4.95,10.4,5.99,17.06,1.46,9.36,7.98,7.2,9.89,4.11,1.49-2.4,2.82-15.72.52-24.36-6.21.29-11.88,1.4-16.13,3.07-.09.04-.19.07-.28.11Z"/><path class="p" d="m172.63,126.7c1.17,4.11,2.18,9.16,2.17,14.33-.02,9.47,6.76,8.36,9.13,5.61,1.46-1.69,3.88-10.12,4.39-17.97-5.21-1.36-10.57-1.95-15.69-1.97Z"/><path class="p" d="m143.57,155.54c3.47,8.81,9.36,5.28,10.55,1.85,1-2.88-.95-18.09-5.82-25.62-5.29,2.09-10.95,4.32-16.2,6.3,3.13,3.37,8.45,9.81,11.47,17.47Z"/></g><path class="am" d="m155,189.89s12.2-4.93,14.53-9.61c1.59-3.21,2.28-18.49,10.95-22.39,0,0-10.9,0-18.76,14.96-5.91,11.26-18.95,16.55-24.59,17.04h17.87Z"/><g class="ap"><path class="p" d="m211.86,226.35c-1.27.6-2.6,1.13-4.05,1.52-1.62.43-3.39.7-5.24.79.48,3.24.49,7.2-.96,11.07.79,0,1.58-.04,2.38-.1,2.21-.17,4.43-.55,6.65-1.14.43-.11.85-.25,1.27-.38.77-4.28.54-8.36-.05-11.75Z"/><path class="p" d="m185.28,235.93c2.92,1.48,6.02,2.53,9.22,3.14,1.9-3.55,2.7-7.29,2.83-10.71-3.27-.52-6.6-1.71-9.72-3.8.43,2.69.54,7.31-2.33,11.36Z"/><path class="p" d="m227.63,227.68c-1.31-5.19-3.74-9.42-5.65-12.14-1.15,3.28-3.2,6.12-5.99,8.32,1.59,2.89,3.07,6.81,3.03,11.18,3.37-1.95,6.28-4.44,8.61-7.36Z"/></g><g class="ao"><path class="x" d="m86.34,186.72c-.33,0-.59.26-.59.59s.26.59.59.59c.13,0,2.94.06,3.38,1.98h1.21c-.34-2.47-3.08-3.17-4.59-3.17Z"/><path class="x" d="m95.28,189.88c-.06-4.07-4.8-5.65-5-5.71-.31-.1-.65.07-.75.39-.1.31.07.65.39.75.04.01,4.12,1.36,4.18,4.59h1.19s0,0,0,0Z"/></g><g class="ao"><path class="x" d="m104.97,189.89c.65-2.96,3.25-4.11,3.38-4.16.3-.13.44-.48.31-.78-.13-.3-.48-.45-.78-.32-.16.06-3.42,1.51-4.1,5.25h1.19Z"/><path class="x" d="m110.73,187.83c.29-.16.39-.52.22-.81-.16-.28-.52-.38-.81-.23-.1.05-1.81,1.04-2.54,3.09h1.3c.64-1.35,1.75-2.02,1.81-2.06Z"/></g><g class="ao"><path class="x" d="m158.97,192.8c-.15.05-3.1,1.18-4.76,3.77.42.09.84.17,1.3.22,1.49-1.96,3.84-2.86,3.87-2.87.31-.11.47-.45.35-.76-.11-.31-.46-.46-.76-.36Z"/><path class="x" d="m157.86,191.68c-.06-.32-.36-.52-.7-.47-.18.04-3.83.81-6.82,3.11.19.34.44.65.76.92,2.78-2.11,6.25-2.85,6.29-2.86.32-.07.53-.38.47-.7Z"/></g></svg>