<svg viewBox="0 0 1024 1024" xmlns:xlink="http://www.w3.org/1999/xlink" xmlns="http://www.w3.org/2000/svg" id="图层_1"><defs><style>.cls-1{fill:url(#未命名的渐变_31);}.cls-2,.cls-5{fill:#eef0f2;}.cls-3,.cls-4{fill:#d8d9db;}.cls-10,.cls-4,.cls-5,.cls-6,.cls-7,.cls-8,.cls-9{fill-rule:evenodd;}.cls-6{fill:url(#未命名的渐变_41);}.cls-7{fill:url(#未命名的渐变_40);}.cls-8{fill:url(#未命名的渐变_39);}.cls-9{fill:#bfc0c2;}.cls-10{fill:#fcfcfc;}</style><linearGradient gradientUnits="userSpaceOnUse" gradientTransform="matrix(280, 0, 0, -80, -1008023.36, -33944.44)" y2="-431.23" x2="3601.92" y1="-434.89" x1="3601.92" id="未命名的渐变_31"><stop stop-opacity="0" stop-color="#e7e9eb" offset="0"></stop><stop stop-opacity="0.1" stop-color="#e7e9eb" offset="0.32"></stop><stop stop-color="#e7e9eb" offset="1"></stop></linearGradient><linearGradient gradientUnits="userSpaceOnUse" gradientTransform="matrix(130.09, 0, 0, -148.51, -466346.75, -61929.78)" y2="-421.73" x2="3589.01" y1="-418.41" x1="3587.98" id="未命名的渐变_41"><stop stop-color="#eef0f2" offset="0"></stop><stop stop-color="#dddee0" offset="1"></stop></linearGradient><linearGradient gradientUnits="userSpaceOnUse" gradientTransform="matrix(62.43, 0, 0, -61.69, -221829.47, -26570.13)" y2="-438.68" x2="3561.62" y1="-435.02" x1="3561.62" id="未命名的渐变_40"><stop stop-color="#fff" offset="0"></stop><stop stop-color="#fafafa" offset="1"></stop></linearGradient><linearGradient gradientUnits="userSpaceOnUse" gradientTransform="matrix(81.75, 0, 0, -45.33, -291620.45, -19831.13)" y2="-453.49" x2="3575.07" y1="-449.83" x1="3575.07" id="未命名的渐变_39"><stop stop-color="#f1f3f5" offset="0"></stop><stop stop-color="#e2e3e6" offset="1"></stop></linearGradient></defs><g id="暂无数据"><g id="背景"><path d="M3.31,707.15S51.72,552.09,215.85,553.24c90,.56,159.77,41.13,217.25,60.08,47.27,15.55,86.22,10.24,121.2,8.72,77.54-3.41,160.92-37.72,241.84-34.88,80.93,2.66,91.71,34.5,146.36,51.37,41.6,12.89,81.5,38.86,81.5,61,0,26.61-15.32,59.7-66,68.1-74.31,12.14-308.2,96.67-561.2,74.5C166.5,821.9,0,775.18,0,721.45A51.75,51.75,0,0,1,3.31,707.15Z" class="cls-1" id="路径_16806"></path><ellipse ry="36.57" rx="201.14" cy="809.23" cx="512" class="cls-2" id="椭圆_770"></ellipse><path d="M146.28,483.07s-1.71,14,3,20.42c1.7,2.27,11.15,7,11.91,18.34.57,11.15-4,31.77-33.47,32.91-27.22,1.14-62.58-8.13-52.56-48.78,6.43-21.18,26.47-16.82,24.39-52.75-.36-24.58,12.1-49.92,20.62-48.78,7.75.94,8.32,13,13.8,22.87C137.56,434.09,147.58,442.41,146.28,483.07Z" class="cls-2" id="路径_16807"></path><path d="M117.32,588.58c0,2.64,4.91,3.4,4.91-1.89-.19-5.12-.36-20.24-1.13-28.16-.19-2.27-1.51-7.19-1.32-8.51.56-3,4.53-12.67,5.48-15.7a128.88,128.88,0,0,0,4.35-42.73c-1.32-19.67-2.65-19.67-4.73-19.47s0,11.53.37,18.72a124.53,124.53,0,0,1-6.81,51.81c-.37.94-2.65,4.34-5.49-1.14s-16.45-24.77-8.69-43.3c2.46-5.67-1.14-4.91-4,.57a29.65,29.65,0,0,0-2.65,16.82A95.58,95.58,0,0,0,110.12,546a37.25,37.25,0,0,1,5.48,9.46C117,561.73,117.32,588.58,117.32,588.58Z" class="cls-3" id="路径_16808"></path><path d="M935.89,536s-1.7,14,3,20.42c1.7,2.27,11.15,7,11.91,18.34.56,11.16-4,31.77-33.47,32.92-27.23,1.13-62.58-8.13-52.56-48.78,6.43-21.18,26.47-16.83,24.39-52.76-.37-24.58,12.1-49.91,20.61-48.78,7.76.94,8.32,13,13.8,22.88C927.18,487,937.2,495.36,935.89,536Z" class="cls-2" id="路径_16809"></path><path d="M908.83,641.52c0,2.64,4.91,3.4,4.91-1.89-.19-5.12-.37-20.24-1.13-28.16-.19-2.27-1.52-7.19-1.33-8.51.57-3,4.54-12.67,5.49-15.7a128.88,128.88,0,0,0,4.35-42.73c-1.33-19.66-2.65-19.66-4.73-19.47s0,11.53.36,18.72a124.36,124.36,0,0,1-6.8,51.81c-.37.94-2.65,4.35-5.49-1.14s-16.46-24.77-8.69-43.3c2.45-5.67-1.14-4.91-4,.57a29.73,29.73,0,0,0-2.64,16.82A95.37,95.37,0,0,0,901.62,599a37,37,0,0,1,5.49,9.46C908.27,614.67,908.83,641.52,908.83,641.52Z" class="cls-3" id="路径_16810"></path><circle r="24.39" cy="274.89" cx="134.92" class="cls-2" id="椭圆_767"></circle><circle r="18.91" cy="526.74" cx="35.26" class="cls-2" id="椭圆_768"></circle><circle r="34.03" cy="350.53" cx="871.02" class="cls-2" id="椭圆_769"></circle></g><g id="组_15997"><g id="组_2"><path d="M224.13,297.07c0-52.27,51.65-60.73,51.65-60.73,48.58,0,85.08,66.11,85.08,66.11l-44.31,10.93s10.87,9,10.87,21.74c0,0-.24,27.18-35.34,27.18C292.08,362.3,224.13,358.59,224.13,297.07Z" class="cls-4" id="形状_1_拷贝"></path><path d="M360.75,302l-44.68,11.43s10.87,9,10.87,21.74c0,0-2.87,27.14-34.44,27.14l6.7-.33,81.47-20.48Z" class="cls-5" id="形状_1_拷贝_2"></path><path d="M224.13,295.24s-5-48.89,51.65-64.21L561.17,180.2S661.74,195.79,661.74,314c0,0-1.2,52-10.88,85.61,0,0-13.59,36.08-13.59,64.22,0,0-5.16,80.92,62.52,123.06L528.55,640.38a45.92,45.92,0,0,1,16.3,34.78s-6.13,48.15-46.2,48.15c0,0-38.72-7.76-81.55-56.18,0,0-59.8-54.73-59.8-133.77,0,0-2.56-48.46,10.87-93.62,0,0,5.44-13.17,5.44-64.22,0,0,2.95-41-16.31-74.91,0,0-32.95-61.53-81.55-61.53C275.78,239.06,230.93,244.23,224.13,295.24Z" class="cls-6" id="形状_1"></path><path d="M400.8,310.66,409,332.41,618.24,286.2l-5.44-21.74Zm16.31,51.64,2.72,21.75L621,340.56l-2.72-21.74Zm2.72,54.36,206.56-46.2,2.72,21.74L422.54,438.4Zm-5.44,51.64,76.1-19L493.21,471l-76.1,19Z" class="cls-7" id="形状_5"></path><path d="M699.79,584.67l-171.4,55.8c10.29,8.87,14,21,14.11,34.57,0,0-3.76,48.25-43.84,48.25H515L775.9,633.6s21.74-8.53,21.74-38c0,0-1.46-27.43-13.59-38Z" class="cls-8" id="形状_1_拷贝_3"></path></g><g id="组_1"><path d="M698.76,531.55a10.9,10.9,0,0,1-14.85-4L639.1,450.36a50.21,50.21,0,0,0,17.56-13.05l46.1,79.47a10.79,10.79,0,0,1-3.93,14.74l-.05,0Z" class="cls-4" id="圆角矩形_1"></path><path d="M667,455.14l4.39,7.59a51.93,51.93,0,0,1-13.89,19.35l-10-17.21Z" class="cls-9" id="形状_7"></path><path d="M552,397.12C552,441,580.64,477,617.23,481a64.46,64.46,0,0,1-6.8.41c-39.78,0-72-37.73-72-84.26s32.25-84.26,72-84.26a64.44,64.44,0,0,1,6.8.4C580.64,317.27,552,353.27,552,397.12Z" class="cls-4" id="椭圆_3_拷贝"></path><path d="M624,481.38c-39.78,0-72-37.73-72-84.26s32.25-84.26,72-84.26,72,37.73,72,84.26S663.8,481.38,624,481.38ZM614.51,340C590.49,340,571,365,571,395.76s19.47,55.72,43.49,55.72,43.49-25,43.49-55.72S638.52,340,614.51,340Z" class="cls-10" id="椭圆_3"></path><path d="M621.3,454.2a44.94,44.94,0,0,1-26.16-8.61,35.74,35.74,0,0,0,19.39,5.89c24,0,43.48-25,43.48-55.72s-19.46-55.71-43.48-55.71a35.73,35.73,0,0,0-19.39,5.88,45.08,45.08,0,0,1,26.16-8.61c27.77,0,50.29,26.17,50.29,58.44S649.07,454.2,621.3,454.2Z" class="cls-4" id="椭圆_4"></path></g></g></g></svg>