<?xml version="1.0" encoding="UTF-8"?><svg id="a" xmlns="http://www.w3.org/2000/svg" viewBox="0 0 233.01 82.38"><defs><style>.b{fill:#666;}.b,.c,.d{stroke-width:0px;}.c{fill:#333;}.d{fill:#ccc;}</style></defs><rect class="d" y="42.35" width="1" height="1"/><path class="c" d="m12.99,54.49v-13.1c0-3.65-.02-6.76-.06-9.32-.04-2.56-.1-3.84-.18-3.84s-.48.36-1.19,1.07c-.52.52-1.9,1.77-4.14,3.75-2.24,1.99-3.68,3.24-4.32,3.75-.32.24-.62.39-.89.45-.28.06-.42,0-.42-.18s.29-.64.86-1.4c.58-.75,1.28-1.59,2.11-2.5,1.75-1.94,3.13-3.53,4.14-4.76,1.01-1.23,2.07-2.68,3.19-4.35.63-.83,1.54-2.47,2.71-4.91,1.17-2.44,1.84-4.02,1.99-4.73.16-.79.35-1.21.57-1.25.22-.04,1.13.52,2.74,1.67,1.61,1.15,2.41,1.8,2.41,1.94s-.36.55-1.07,1.22c-.6.6-1.32,1.44-2.17,2.53-.85,1.09-1.42,1.92-1.7,2.47-.16.32-.27,1.32-.33,3.01-.06,1.69-.11,5.55-.15,11.58-.04,7.35-.02,11.77.06,13.28-.08,1.07-1.47,2.28-4.17,3.63ZM3.1,19.36c-.12-.16-.09-.35.09-.57.18-.22,1-.88,2.47-1.99,1.59-1.19,3.13-2.55,4.62-4.08,1.49-1.53,2.79-3.09,3.9-4.67.63-.83,1.22-1.85,1.76-3.04.54-1.19.84-2.12.92-2.8.04-.32.09-.6.15-.83s.14-.36.24-.36.82.49,2.17,1.46c1.35.97,2.24,1.66,2.68,2.05.44.4.66.68.66.83s-.41.55-1.22,1.16c-.81.62-1.46,1.14-1.94,1.58-.75.68-1.92,1.62-3.48,2.83-1.57,1.21-3.13,2.37-4.67,3.48-1.63,1.15-3.33,2.3-5.12,3.45-1.79,1.15-2.75,1.73-2.89,1.73s-.25-.08-.33-.24Zm14.23,32.87c.12-.52.65-1.46,1.61-2.83.95-1.37,1.71-2.61,2.26-3.72.91-1.83,1.62-3.73,2.11-5.72.5-1.98.86-4.39,1.1-7.21.16-2.38.25-6.35.27-11.91.02-5.56-.07-8.95-.27-10.18-.2-1.23-.26-1.89-.18-1.97s.58.2,1.49.83c2.18,1.51,3.81,2.36,4.88,2.56.6.08,1.4.07,2.41-.03,1.01-.1,1.66-.25,1.94-.45.16-.12.26-.29.3-.51.04-.22.04-.72,0-1.52l-.24-3.63c-.24-3.53-.3-5.36-.18-5.48.12-.12.98.16,2.59.83,1.61.68,2.61,1.19,3.01,1.55l.71.65-.65,1.25c-.44.79-.72,1.92-.86,3.36-.14,1.45-.13,2.37.03,2.77.12.24.27.4.45.48.18.08.59.12,1.22.12.75,0,1.75-.11,2.98-.33,1.23-.22,2-.42,2.32-.6.32-.18.65-.55,1.01-1.1.12-.2.26-.38.42-.54s.3-.24.42-.24c.16,0,.73.4,1.73,1.19.99.79,1.87,1.57,2.62,2.32.32.32.58.62.77.89.2.28.28.46.24.54-.04.2-.3.4-.77.6-1.43.75-2.87,1.63-4.32,2.62-1.45.99-2.69,1.97-3.72,2.92-.6.52-1.02.79-1.28.83-.26.04-.33-.18-.21-.66.08-.36.51-1.33,1.28-2.92.77-1.59,1.12-2.45,1.04-2.59-.08-.14-1.11-.21-3.1-.21-1.31,0-2.15.03-2.53.09-.38.06-.61.16-.69.3-.08.14-.15.71-.21,1.73-.06,1.01-.09,2.17-.09,3.48l-.12,4.76,1.85-.06c1.23-.04,1.97-.13,2.2-.27.24-.14.52-.51.83-1.1.16-.24.32-.45.48-.63.16-.18.32-.29.48-.33.24-.04,1.05.45,2.44,1.46,1.39,1.01,2.2,1.7,2.44,2.05.08.16.09.31.03.45-.06.14-.23.35-.51.63-.52.44-.96.95-1.34,1.55-.38.6-.86,1.57-1.46,2.92-.71,1.59-1.54,3.32-2.47,5.18-.93,1.87-1.55,3.01-1.85,3.42s-.51.82-.63,1.22c-.12.24-.16.42-.12.54.04.12.16.28.36.48.44.4,1.16.91,2.17,1.55,1.01.64,1.94,1.16,2.77,1.58.83.42,2.22.96,4.17,1.64,1.94.68,3.33,1.09,4.17,1.25.52.08.89.24,1.13.48.24.24.24.43,0,.57-.24.14-.87.33-1.91.57-1.95.52-3.49,1.39-4.65,2.62-.64.68-1.07,1.01-1.31,1.01s-.99-.43-2.26-1.28c-1.27-.85-2.38-1.7-3.33-2.53-1.31-1.11-2.5-2.24-3.57-3.39l-1.55-1.73-1.07.89c-1.35,1.19-3.1,2.47-5.24,3.84-2.14,1.37-4.49,2.69-7.03,3.96-2.06,1.07-3.36,1.61-3.87,1.61-.36,0-.57-.02-.63-.06-.06-.04-.03-.14.09-.3.2-.2.91-.67,2.14-1.43.87-.48,2.17-1.3,3.9-2.47,1.73-1.17,2.65-1.84,2.77-1.99.08-.08.6-.52,1.55-1.31,1.23-1.03,2.48-2.14,3.75-3.33,1.27-1.19,1.91-1.87,1.91-2.02s-.51-1.55-1.52-4.17c-1.01-2.62-1.82-4.82-2.41-6.61-.68-2.06-1.23-3.5-1.67-4.32-.44-.81-.83-1.14-1.19-.98-.2.08-.35,1-.45,2.77-.1,1.77-.28,3.6-.54,5.51-.26,1.91-.55,3.43-.86,4.59-.56,2.18-1.47,4.23-2.74,6.13-.6.95-1.61,2.26-3.04,3.93-1.43,1.67-2.52,2.81-3.28,3.42-.75.62-1.07.66-.95.15Zm17.51-27.63c.12-.16.21-.59.27-1.28.06-.69.11-1.9.15-3.6.04-1.98.04-3.24,0-3.75-.04-.52-.14-.85-.3-1.01-.28-.24-1.19-.34-2.74-.3h-.24c-1.11,0-1.83.06-2.14.18-.4.16-.66.58-.77,1.25-.08.44-.12,1.53-.12,3.28l-.06,4.53.77.18c.52.08.94.25,1.28.51.34.26,1.02.39,2.05.39.6,0,1.02-.03,1.28-.09.26-.06.45-.15.57-.27Zm3.75,13.94c.48-.56,1.29-2.32,2.44-5.3,1.15-2.98,1.73-4.82,1.73-5.54v-.6l-10.3.06.12.6c.12.6.62,1.85,1.49,3.75.79,1.75,1.61,3.39,2.44,4.94.87,1.63,1.41,2.44,1.61,2.44.08,0,.24-.12.48-.36Z"/><path class="c" d="m90.94,54.61c-.16-.16-.26-.64-.3-1.46-.04-.81-.06-2.65-.06-5.51,0-4.41-.08-6.81-.24-7.21-.16-.48-.51-.77-1.04-.89-.54-.12-1.5-.1-2.89.06-1.63.2-3.33.44-5.12.71l-2.68.48-.6-.66c-.36-.44-.79-.95-1.31-1.55l-.71-.95-1.07,2.68c-.28.75-.82,1.84-1.64,3.25-.81,1.41-1.54,2.53-2.17,3.36-.71.95-1.58,1.94-2.59,2.95-1.01,1.01-2.13,2.04-3.36,3.07-1.23,1.03-1.95,1.55-2.14,1.55-.08,0-.15-.03-.21-.09s-.09-.16-.09-.3.35-.67,1.04-1.61c.69-.93,1.51-1.91,2.44-2.92.93-1.01,1.91-2.46,2.92-4.35,1.01-1.89,1.74-3.56,2.17-5.03.6-2.02,1.07-4.61,1.43-7.74.36-3.14.5-5.92.42-8.34-.04-1.27-.1-2.11-.18-2.53-.08-.42-.28-.86-.6-1.34-.4-.71-.6-1.16-.6-1.34s.37-.24,1.1-.18c.73.06,1.68.23,2.83.51.87.24,1.64.4,2.29.48.66.08,1.58.12,2.77.12,1.63,0,4.91-.15,9.86-.45,4.94-.3,8.19-.53,9.74-.69,1.35-.2,2.8-.5,4.35-.89l2.38-.6,1.73,1.85c.95.99,1.54,1.64,1.76,1.94.22.3.28.53.18.69-.1.16-1.72.24-4.85.24-2.38,0-6.01.11-10.87.33-4.86.22-8.51.43-10.93.63-1.79.16-3.24.24-4.35.24-.48,0-.89.02-1.25.06-.36.04-.54.08-.54.12-.12.16-.26,1.08-.42,2.77-.16,1.69-.4,3.82-.71,6.4-.12,1.07-.22,2.01-.3,2.8-.08.79-.08,1.21,0,1.25.12.16,1.25.25,3.39.27,2.14.02,4.05-.03,5.72-.15,2.1-.16,3.43-.38,3.99-.65l.83-.42v-2.5c0-1.07-.04-1.75-.12-2.02-.16-.36-.48-.58-.95-.65-.36-.04-1.21.02-2.56.18h-.36c-2.14.2-3.51.32-4.11.36-.36,0-.61-.03-.74-.09-.14-.06-.27-.19-.39-.39-.12-.2-.34-.63-.65-1.31-.6-1.15-.95-1.94-1.07-2.38-.08-.32-.1-.5-.06-.54s.2.02.48.18c.36.16.69.38,1.01.65.32.28.69.47,1.13.57.44.1,2.02.07,4.76-.09,4.33-.24,7.38-.44,9.17-.6,2.06-.16,3.53-.34,4.41-.54.75-.16,1.33-.4,1.73-.71.48-.36.9-.5,1.28-.42.38.08.84.44,1.4,1.07.63.71,1.18,1.4,1.64,2.05.46.66.69,1.08.69,1.28s-.31.32-.92.36c-.62.04-2.11.08-4.5.12-3.61,0-5.66.04-6.13.12-.24.08-.41.16-.51.24-.1.08-.16.23-.18.45-.02.22-.04.68-.06,1.37-.02.7-.01,1.23.03,1.61.04.38.16.76.36,1.16.16.28.33.54.51.77s.33.36.45.36c.24.08,1.74-.03,4.5-.33,2.76-.3,4.44-.53,5.03-.68.6-.16,1.21-.47,1.85-.92.63-.46,1.02-.68,1.16-.68s.59.32,1.34.95c1.15,1.03,1.96,1.8,2.41,2.29.46.5.7.87.74,1.13.04.26-.13.48-.51.66-.38.18-3.15.33-8.31.45l-7.74.24-1.85,1.25v5.12c0,3.41-.09,5.48-.27,6.19-.18.71-.61,1.41-1.28,2.08-.52.52-.95.83-1.31.95-.36.12-.7.02-1.01-.3Zm-17.21-37.34c-.08-.12-.14-.83-.18-2.14-.04-1.31-.06-2.86-.06-4.65,0-2.54.02-4.25.06-5.12.04-.87.12-1.31.24-1.31.24,0,1.08.25,2.53.74,1.45.5,2.32.83,2.62,1.01.3.18.46.44.48.77.02.34-.09.65-.33.92-.12.12-.24.41-.36.86-.12.46-.24.94-.36,1.46-.12.71-.19,1.24-.21,1.58-.02.34.02.57.12.69.1.12.42.19.95.21.54.02,1.56.01,3.07-.03,1.79-.04,2.98-.1,3.57-.18.71-.04,1.17-.11,1.37-.21.2-.1.32-.27.36-.51.12-.44.06-2.04-.18-4.82-.24-2.78-.48-4.74-.71-5.9l-.12-.65,1.49.18c.87.08,1.71.27,2.5.57.79.3,1.47.65,2.02,1.04.4.32.64.65.74.98.1.34,0,.57-.3.68-.3.12-.56.69-.77,1.7-.22,1.01-.35,2.25-.39,3.72v2.74l3.33-.12c2.26-.04,3.85-.12,4.76-.24l1.43-.12.06-4.65c.04-3.1.09-4.67.15-4.73s.27,0,.63.21c.36.2.67.43.95.69.28.26,1.01.65,2.2,1.16.48.24.89.47,1.25.68.36.22.56.39.6.51.08.32-.04.64-.36.95-.16.2-.27.42-.33.65-.06.24-.11.7-.15,1.37v7.92l-.65.3c-.48.28-.99.45-1.55.51-.56.06-1.01.03-1.37-.09-.24-.08-.42-.22-.54-.42-.12-.2-.24-.5-.36-.89-.08-.28-.17-.53-.27-.74-.1-.22-.19-.35-.27-.39-.2-.08-1.73,0-4.59.21-2.86.22-6.06.45-9.62.68-3.55.24-6.01.44-7.35.6-.87.08-1.5.18-1.88.3-.38.12-.78.34-1.22.65-.56.4-1.16.67-1.82.8-.66.14-1.06.09-1.22-.15Z"/><path class="c" d="m127.45,42.88c-.08-.12-.18-.33-.3-.63s-.21-.58-.27-.83c-.06-.26-.11-1.91-.15-4.94-.04-3.04-.06-6.54-.06-10.51v-14.41l-.6-.65c-.16-.16-.29-.35-.39-.57-.1-.22-.15-.37-.15-.45.12-.56,1.07-.42,2.86.42.95.44,1.75.71,2.38.83.75.12,1.22.23,1.4.33.18.1.27.29.27.57s-.26.52-.77.71c-.28.12-.49.26-.63.42-.14.16-.23.38-.27.65-.12.48-.18,5.08-.18,13.82v13.04l-.95,1.31c-.28.4-.54.73-.8.98-.26.26-.45.39-.57.39-.28,0-.56-.16-.83-.48Zm8.7,10.66c-.36-.83-.59-1.64-.69-2.41-.1-.77-.09-1.66.03-2.65.04-.56.08-3.1.12-7.62s.06-9.79.06-15.78l-.06-14.53c-.04-3.06-.08-5.1-.12-6.13-.04-.87-.14-1.49-.3-1.85-.28-.75-.38-1.17-.3-1.25.2-.2,1.63.34,4.29,1.61,1.03.48,1.69.81,1.97,1.01.28.2.42.42.42.65,0,.16-.02.3-.06.42s-.1.18-.18.18c-.16,0-.44.3-.83.89l-.6.83v18.64c0,5.12-.02,9.76-.06,13.91-.04,4.15-.08,6.56-.12,7.24-.16,1.71-.36,2.95-.6,3.72-.24.77-.62,1.59-1.13,2.44-.52.85-.9,1.31-1.16,1.37-.26.06-.49-.17-.68-.68Zm4.7-28.05c0-.12.09-.33.27-.63.18-.3.41-.59.68-.86.71-.79,1.63-2.03,2.74-3.72,1.11-1.69,1.97-3.15,2.56-4.38.87-1.87,1.59-3.81,2.14-5.84.56-2.03,1.09-4.57,1.61-7.62.08-.44.17-.82.27-1.16.1-.34.2-.51.3-.51s.65.27,1.67.8c1.01.54,1.91,1.04,2.71,1.52.28.2.54.41.78.63.24.22.38.39.42.51.08.32-.11.69-.57,1.1-.46.42-.99,1.43-1.61,3.04-.62,1.61-.98,2.65-1.1,3.13l-.12.71,1.91-.12c1.63-.16,3.34-.36,5.15-.6,1.81-.24,3.07-.44,3.78-.6.79-.2,1.41-.44,1.85-.71.44-.28.78-.63,1.01-1.07.08-.2.19-.36.33-.48.14-.12.25-.18.33-.18.24,0,1.08.65,2.53,1.97s2.23,2.1,2.35,2.38c.04.12.04.25,0,.39-.04.14-.12.26-.24.36-.12.1-.52.19-1.19.27-.68.08-1.89.16-3.63.24-2.98.12-5.54.27-7.68.45-2.14.18-4.02.25-5.63.21-1.61-.04-2.45-.02-2.53.06l-1.13,1.49c-.68.91-2.14,2.52-4.41,4.82-3.06,3.22-4.84,4.82-5.36,4.82-.12,0-.18-.14-.18-.42Zm4.59,28.29c-.16-.24-.26-1.14-.3-2.71-.04-1.57-.08-4.91-.12-10.03v-14.47l5.54,2.86,3.22-.6c1.27-.24,2.23-.4,2.89-.48.65-.08,1.28-.08,1.88,0,1.03.08,2.3.04,3.81-.12.99-.12,1.69-.23,2.08-.33.4-.1.79-.29,1.19-.57.24-.2.49-.42.75-.65.26-.24.43-.45.51-.63s.19-.33.33-.45.27-.18.39-.18c.28,0,1.12.68,2.53,2.05s2.11,2.19,2.11,2.47c0,.12-.1.32-.3.6-.2.28-.44.56-.71.83l-1.07.89-.3,13.46c-.08,1.15-.16,1.95-.24,2.38-.04.32-.16.7-.36,1.13-.32.56-.8,1.14-1.46,1.76-.65.62-1.14.92-1.46.92-.24,0-.43-.19-.57-.57-.14-.38-.31-1.1-.51-2.17-.08-.63-.18-1.09-.3-1.37-.12-.28-.28-.46-.48-.54-.28-.16-1.06-.21-2.35-.15-1.29.06-3.84.27-7.65.63-1.91.2-3.26.36-4.05.48-.8.12-1.24.24-1.34.36-.1.12-.18.31-.24.57-.06.26-.09.53-.09.8,0,.68-.07,1.21-.21,1.61-.14.4-.45.93-.92,1.61-.52.71-.95,1.07-1.31,1.07-.16,0-.33-.05-.51-.15-.18-.1-.31-.21-.39-.33Zm8.81-9.59c.2-.24.33-.48.39-.71.06-.24.11-.71.15-1.43v-8.52l-.95-1.01c-.4-.44-.71-.72-.92-.86-.22-.14-.49-.21-.8-.21-.6,0-1.26.21-2,.63-.73.42-1.15.8-1.25,1.16-.1.36-.13,2.26-.09,5.72l.12,5.12.54.48c.28.2.56.32.83.36.28.04.82.04,1.64,0,.81-.04,1.35-.09,1.61-.15.26-.06.51-.25.75-.57Zm3.75-18.52c-.28-.28-.76-1.34-1.43-3.19-.68-1.85-1.25-3.28-1.73-4.32-.48-1.03-.68-1.59-.6-1.67.08-.08.29-.06.62.06s1.06.45,2.17.98c1.11.54,2.05,1.13,2.83,1.79.78.65,1.26,1.26,1.46,1.82.12.36.16.66.12.89-.04.24-.2.64-.48,1.19-.36.79-.75,1.48-1.19,2.05-.44.58-.78.86-1.04.86s-.51-.16-.74-.48Zm6.01,18.34c.4-.12.67-.24.83-.36.16-.12.3-.34.42-.66.12-.48.24-2.46.36-5.96.08-2.38.11-3.87.09-4.47-.02-.6-.12-.98-.3-1.16-.18-.18-.44-.29-.78-.33-.34-.04-.94-.06-1.82-.06-.6,0-1.16.02-1.7.06-.54.04-.88.1-1.04.18-.4.16-.67.41-.81.74-.14.34-.25.94-.33,1.82-.08.79-.12,2.16-.12,4.11l-.06.36v3.45c.04.83.12,1.42.24,1.76.12.34.36.57.71.69.2.04.65.06,1.37.06h.12c1.19,0,2.12-.08,2.8-.24Z"/><path class="c" d="m223.18,12.92c.85-1.27,1.28-2.18,1.28-2.74,0-.24-.43-.39-1.28-.45-.85-.06-2.49-.03-4.91.09l-7.74.36c-5.44.2-8.94.35-10.51.45-1.57.1-3.19.24-4.85.42-1.67.18-2.59.34-2.77.48-.18.14-.63.76-1.34,1.88-.71,1.11-1.47,2.06-2.26,2.86-1.31,1.31-2.54,1.81-3.69,1.49-.48-.16-.97-.4-1.49-.71-.52-.32-.77-.56-.77-.71s.53-.75,1.58-1.79c1.05-1.03,1.94-2.04,2.65-3.04.64-.91,1.25-1.94,1.85-3.1.6-1.15.89-1.89.89-2.2s.1-.6.3-.83c.16-.2.29-.3.39-.3s.29.12.57.36c.2.16.41.39.63.69.22.3.39.59.51.86.16.44.31.71.45.83.14.12.35.18.63.18,1.15,0,3.73-.1,7.74-.3,4.01-.2,6.02-.34,6.02-.42,0-.16-.81-2.16-2.44-6.01l-.36-.77,1.13.12c.99.16,2.08.45,3.28.86,1.19.42,1.97.8,2.35,1.16.38.36.6.63.65.8s.05.61-.03,1.28c-.08.87-.18,1.53-.3,1.97-.08.28-.07.45.03.51.1.06.43.09.98.09,1.19,0,3.49-.13,6.91-.39,3.41-.26,5.28-.43,5.6-.51.2-.08.43-.21.69-.39.26-.18.46-.37.59-.57.14-.2.29-.37.45-.51.16-.14.28-.21.36-.21.2,0,.9.45,2.11,1.34s2.08,1.62,2.62,2.17c.54.56.92.99,1.16,1.31.12.2.19.36.21.48.02.12-.03.26-.15.42-.16.2-1.01.58-2.56,1.13-1.39.52-3.1,1.25-5.12,2.2-2.18.71-2.85.44-1.99-.83Zm-36.12,10.42c-1.9.52-2.92.7-3.04.57-.12-.14.07-.37.57-.68.5-.32,1.48-.85,2.95-1.61,4.13-2.1,7.25-4.05,9.35-5.84,1.87-1.63,2.86-2.8,2.98-3.51,0-.91.61-1.1,1.82-.57,1.21.54,2.04.94,2.5,1.22.46.28.65.6.6.95-.06.36-.7.97-1.91,1.85-1.21.87-2.69,1.85-4.44,2.92-1.91,1.15-3.42,1.96-4.53,2.41-1.11.46-2.06.82-2.86,1.1-.79.28-2.12.68-3.99,1.19Zm39.42.24c.52.6.36,1.35-.48,2.26l-.83.89v21.02c-.04,1.59-.1,2.73-.18,3.42-.08.7-.24,1.22-.48,1.58-.12.24-.42.54-.89.89l-.3.24c-.68.56-1.27.83-1.79.83h-.78v-1.19c-.04-.75-.1-1.5-.18-2.23-.08-.73-.16-1.14-.24-1.22-.16-.16-3.83-.14-11.02.06-7.19.2-11.28.4-12.27.6-.4.08-.67.23-.8.45-.14.22-.31.73-.51,1.52-.08.44-.6.96-1.55,1.58-.95.62-1.53.92-1.73.92-.12,0-.23-.06-.33-.18-.1-.12-.19-.26-.27-.42-.12-.4-.19-5.61-.21-15.63-.02-10.02-.04-15.24-.06-15.63-.02-.4.19-.63.63-.69.44-.06,1.07.05,1.9.33.64.2,1.23.34,1.79.42.56.08,1.33.12,2.32.12,1.15.04,1.89.03,2.2-.03s.65-.25,1.01-.57c.48-.4.76-.72.86-.98.1-.26.6-1.12,1.49-2.59.89-1.47,1.38-2.42,1.46-2.86.04-.16.11-.3.21-.42.1-.12.19-.18.27-.18.2,0,.72.29,1.58.86.85.58,1.6,1.01,2.23,1.31.63.3.95.51.95.63s-.23.3-.68.54-1.31.9-2.56,1.99c-1.25,1.09-1.87,1.72-1.87,1.88s1.55.24,4.65.24,5.3-.08,6.61-.24c1.47-.16,2.57-.38,3.3-.66.73-.28,1.26-.63,1.58-1.07.32-.44.78-.53,1.4-.27.61.26,1.32.68,2.11,1.25.79.58,1.27.98,1.43,1.22Zm-27.39,2.8l-3.1.12-.06,9.65c-.04,6.47,0,10.01.12,10.6.12.6.34.97.65,1.13.32.16,1.36.18,3.13.06s5.45-.3,11.05-.54c5.56-.24,8.62-.42,9.17-.54l.83-.18.06-9.89c.04-6.59.02-10.04-.06-10.36-.04-.2-.12-.33-.24-.39s-.34-.1-.65-.12c-.32-.02-.93-.03-1.85-.03-2.14,0-4.8.05-7.98.15-3.18.1-5.4.17-6.67.21-1.27.04-2.74.08-4.41.12Zm6.79.92c1.03.22,1.64.51,1.82.86.18.36.07.75-.33,1.19-.4.44-.67.79-.8,1.07-.14.28-.21.49-.21.63s.03.24.09.3c.06.06.25.09.57.09l1.49-.12c1.59-.08,2.65-.22,3.19-.42.54-.2,1.06-.6,1.58-1.19.24-.28.47-.52.68-.71.22-.2.37-.3.45-.3.16,0,.66.32,1.49.95.83.64,1.47,1.19,1.91,1.67.16.16.31.35.45.57.14.22.21.38.21.48s-.07.23-.21.39c-.14.16-.29.3-.45.42-.36.2-1.32,1.07-2.89,2.62-1.57,1.55-2.43,2.48-2.59,2.8-.08.16-.08.32,0,.48.08.16.31.38.68.65.38.28,1.02.74,1.94,1.37.47.32.92.66,1.34,1.01.42.36.68.64.8.83.28.48.39.94.33,1.4-.06.46-.29.88-.68,1.28-.4.4-.78.55-1.16.45-.38-.1-1.08-.56-2.11-1.37-1.03-.81-1.94-1.62-2.74-2.41l-1.31-1.37-.54.48c-.28.24-1.18.81-2.71,1.73-1.53.91-2.83,1.63-3.9,2.14-.71.36-1.7.74-2.95,1.16s-1.89.43-1.91.03c-.02-.4.45-.79,1.4-1.19.95-.4,2.28-1.12,3.99-2.17,1.71-1.05,2.88-1.92,3.51-2.59l.54-.6-2.26-2.2c-.64-.63-1.2-1.17-1.7-1.61-.5-.44-.78-.66-.86-.66s-.21.08-.39.24c-.18.16-.35.36-.51.6-.47.6-1.17,1.26-2.08,1.99-.91.74-1.48,1.06-1.7.98-.22-.08-.33-.21-.33-.39s.17-.58.51-1.19c.34-.62.56-.97.66-1.07.1-.1.72-1.06,1.88-2.89.87-1.43,1.51-2.56,1.9-3.39.4-.83.66-1.65.78-2.44-.08-.44.17-.69.74-.77.58-.08,1.38,0,2.41.21Zm3.99,8.55c.75-1.07,1.13-1.66,1.13-1.76s-.36-.17-1.07-.21c-.71-.04-1.57-.06-2.56-.06-1.35,0-2.28.02-2.8.06-.52.04-.78.13-.8.27-.02.14.15.38.51.71.36.34,1.12.86,2.29,1.58,1.17.71,1.83,1.07,1.99,1.07.08,0,.25-.16.51-.48.26-.32.53-.71.8-1.19Zm10.24-21.02c1.67.6,2.77.95,3.31,1.07.54.12,1.3.48,2.29,1.07.99.6,1.62,1.15,1.88,1.67.26.52.38.96.36,1.34-.02.38-.17.64-.45.77-.28.14-.74.2-1.4.18-.65-.02-1.46-.18-2.41-.48s-2.24-.87-3.87-1.73c-1.63-.85-2.92-1.58-3.87-2.17-.95-.6-1.77-1.17-2.44-1.73-.75-.67-1.4-1.32-1.93-1.94-.54-.61-.86-1.12-.98-1.52-.12-.4-.02-.6.3-.6s1.52.53,3.6,1.58c2.08,1.05,3.96,1.88,5.63,2.47Z"/><path class="b" d="m36.21,66.7c0,.13-.04.27-.13.41-.09.14-.21.27-.35.4-.14.13-.3.25-.48.37-.17.11-.35.21-.53.28-.42.18-1.01.34-1.78.48s-1.73.21-2.86.21c-.91,0-1.82-.08-2.74-.23s-1.81-.41-2.66-.76c.28.28.45.54.53.79s.12.55.12.9c0,.62-.24,1.28-.72,1.98-.47.71-1.07,1.36-1.81,1.97-.74.61-1.52,1.11-2.35,1.51-.47.23-.98.43-1.53.59s-1.14.31-1.75.41c-.61.11-1.24.18-1.9.24-.66.05-1.32.08-1.99.08-.47,0-.92-.1-1.36-.29s-.84-.44-1.18-.72c-.35-.28-.62-.58-.83-.91-.21-.32-.31-.61-.31-.87,0-.64.13-1.25.39-1.83.26-.58.6-1.15,1.04-1.7s.94-1.08,1.52-1.6c.57-.52,1.18-1.04,1.83-1.56.36-.29.77-.58,1.23-.85.46-.28.94-.53,1.44-.75s1.01-.4,1.52-.54c.51-.14,1-.21,1.47-.21.38,0,.71.04.99.11.27.07.54.17.78.3s.5.29.75.49.55.42.89.66c.11.07.4.17.89.31.48.14,1.06.27,1.72.4.66.13,1.36.24,2.09.34.73.1,1.39.15,1.99.15s1.15-.01,1.65-.04c.5-.03.99-.07,1.46-.14.47-.06.94-.15,1.41-.26.47-.11.97-.24,1.51-.4.05.12.07.22.07.31Zm-13.4,2.83c.01-.22-.01-.47-.07-.75-.06-.28-.16-.54-.31-.79-.15-.25-.35-.45-.59-.61s-.55-.22-.91-.19c-.55-.14-1-.29-1.36-.45-.36-.16-.63-.24-.83-.24-.14,0-.3.03-.47.09-.17.06-.34.14-.52.24-.18.1-.36.22-.55.36-.19.14-.37.28-.55.43-.36.31-.69.58-1,.84-.31.25-.59.5-.86.75-.27.25-.53.51-.78.78-.25.27-.5.58-.75.91-.11.14-.2.31-.29.51-.08.2-.16.4-.22.61-.06.21-.1.42-.13.62s-.04.39-.04.56c0,.1.05.23.16.37s.25.29.42.42.37.25.59.35c.22.09.44.14.65.14.61,0,1.13-.02,1.56-.05s.83-.1,1.19-.19c.36-.09.73-.21,1.1-.37.37-.16.8-.36,1.29-.61.24-.12.48-.25.71-.41.23-.16.46-.32.69-.5s.44-.36.65-.54c.2-.18.39-.37.57-.55.12-.12.22-.26.3-.44s.15-.35.2-.52c.05-.17.08-.33.1-.47.02-.14.03-.24.03-.31Z"/><path class="b" d="m63.25,68.15c0,.15-.04.3-.12.45-.08.15-.17.31-.29.46-.11.15-.24.3-.39.45-.14.15-.28.29-.41.42-.35.35-.75.71-1.22,1.08-.47.37-.97.72-1.5,1.07-.53.35-1.08.67-1.64.98-.56.31-1.11.58-1.65.81-.43.19-.84.37-1.23.53-.39.17-.78.31-1.18.42-.39.12-.81.21-1.24.28-.43.07-.9.11-1.42.11-.99,0-1.8-.17-2.42-.49-.31-.17-.58-.38-.82-.64-.23-.26-.44-.55-.61-.88s-.32-.66-.45-1.02-.23-.72-.31-1.07c-.11-.44-.21-.83-.31-1.18-.1-.35-.21-.64-.33-.88s-.28-.42-.46-.55c-.18-.13-.41-.19-.7-.19-.23,0-.44.02-.65.05-.2.03-.42.09-.64.19-.22.09-.46.23-.73.4-.26.17-.57.4-.92.68-.35.28-.76.63-1.21,1.04s-.99.9-1.6,1.46c-.3.28-.65.58-1.06.91-.41.33-.82.64-1.25.94-.42.3-.84.56-1.25.79s-.77.37-1.08.44c-1.05-.15-1.58-1.01-1.58-2.58,0-.42.07-1.05.22-1.9.07-.38.16-.79.25-1.21s.22-.84.36-1.26.31-.83.49-1.22.4-.76.65-1.1c.12-.16.25-.28.38-.37.13-.09.27-.16.4-.2.14-.04.28-.07.43-.08.15-.01.3-.02.46-.02.19,0,.36.09.51.26.15.17.22.41.22.72,0,.19-.02.37-.07.53-.05.17-.11.33-.2.51-.08.17-.17.36-.27.56s-.19.43-.29.69c-.07.21-.15.45-.24.71s-.17.52-.25.79c-.08.27-.14.53-.2.78-.05.25-.08.48-.08.69,0,.14.04.29.11.44.33-.02.88-.35,1.65-.99.39-.32.83-.67,1.3-1.06.47-.38.98-.81,1.53-1.27.41-.35.81-.67,1.21-.97.4-.3.82-.56,1.25-.78s.89-.4,1.37-.53c.48-.13,1.02-.19,1.61-.19.62,0,1.14.09,1.55.27.41.18.74.42,1,.73.25.31.45.68.58,1.11.14.43.25.91.33,1.42.07.44.14.88.21,1.31.07.43.19.82.39,1.16.19.34.47.62.83.83.36.21.87.32,1.54.32.51,0,1.05-.08,1.61-.24.56-.16,1.15-.38,1.78-.65.62-.28,1.26-.61,1.93-.98.66-.38,1.35-.79,2.05-1.24.27-.17.58-.39.91-.65.33-.26.65-.52.97-.76.32-.24.61-.45.89-.62.27-.17.5-.26.66-.26.07,0,.19.02.35.07.16.05.24.13.24.24Z"/><path class="b" d="m82.26,68.44c0,.12-.13.33-.39.62-.62.59-1.32,1.18-2.09,1.77-.77.59-1.59,1.15-2.46,1.68-.87.53-1.77,1.02-2.71,1.48-.94.46-1.89.86-2.84,1.19-.96.33-1.91.59-2.86.77s-1.87.27-2.75.26c-1.91,0-3.4-.37-4.46-1.09-1.06-.73-1.59-1.83-1.59-3.31,0-1.23.29-2.43.87-3.59s1.57-2.28,2.97-3.36c.26-.19.56-.37.89-.54.33-.17.68-.33,1.04-.46.36-.13.74-.24,1.13-.32.39-.08.78-.12,1.18-.14.1,0,.23,0,.39.02s.35.04.54.08c.19.04.38.09.56.15.18.06.32.13.43.22.33.25.6.51.8.78s.31.56.33.88c.02.36-.04.72-.19,1.07-.15.35-.4.71-.75,1.07-.35.37-.82.74-1.39,1.13-.57.39-1.27.81-2.08,1.25-.51.28-1.09.59-1.71.94s-1.38.7-2.27,1.08c0,.76.35,1.34,1.05,1.74s1.66.59,2.88.59c.68,0,1.37-.06,2.06-.18.69-.12,1.38-.27,2.05-.46.67-.19,1.32-.41,1.95-.66.63-.25,1.22-.5,1.77-.76,1.02-.49,1.94-.97,2.76-1.46.83-.48,1.64-.99,2.46-1.52l.97-.64c.59-.34,1.01-.51,1.27-.51.14,0,.22.07.22.22Zm-13.71-2.34c-.01-.12-.04-.23-.08-.35-.04-.11-.1-.21-.19-.3-.08-.09-.18-.16-.29-.21-.11-.05-.23-.08-.38-.08-.63.02-1.27.28-1.9.76-.63.48-1.23,1.12-1.79,1.91-.13.17-.25.37-.35.58s-.2.44-.29.66c-.09.22-.17.45-.23.67-.07.22-.12.42-.17.59.62-.31,1.2-.59,1.72-.85.53-.26,1.02-.53,1.47-.8.29-.17.58-.36.88-.56.3-.2.57-.41.82-.63s.44-.45.58-.68.21-.47.2-.72Z"/><path class="b" d="m107.36,68.01c0,.24-.17.5-.5.77-.23.18-.54.38-.93.59s-.89.45-1.47.71c-.59.26-1.21.53-1.87.8-.66.28-1.36.56-2.12.85-.75.29-1.5.58-2.22.86s-1.47.56-2.22.84c-.75.28-1.38.51-1.87.71-.5.2-.88.35-1.16.46-.26.11-.54.26-.83.45-.29.19-.64.42-1.03.68-.97.64-2.04,1.24-3.23,1.81-.63.31-1.36.46-2.17.46-.44,0-.85-.06-1.22-.18-.38-.12-.57-.3-.57-.55,0-.16.1-.3.29-.42.36-.24.69-.44,1-.6.3-.16.62-.32.94-.47.32-.15.68-.3,1.06-.46s.83-.35,1.35-.58c.62-.28,1.1-.49,1.44-.63.33-.15.53-.23.57-.25.73-.35,1.38-.71,1.95-1.07.57-.36,1.06-.72,1.48-1.09.85-.75,1.27-1.59,1.27-2.53,0-.17-.05-.38-.15-.66-.1-.27-.25-.54-.44-.81-.19-.26-.42-.49-.69-.68s-.57-.29-.91-.29c-.36,0-.71.05-1.06.14-.35.09-.69.21-1.04.36-.35.15-.69.32-1.01.51-.33.19-.65.39-.98.58-.63.4-1.25.84-1.84,1.33-.59.49-1.22,1.04-1.88,1.65-.32.31-.6.62-.84.94-.24.32-.44.63-.6.94-.16.3-.28.59-.37.85-.08.27-.13.5-.14.68l-.07.96c-.02.23-.16.41-.42.54-.26.13-.57.19-.94.19-.54,0-.92-.14-1.16-.41s-.35-.68-.35-1.24c0-.08,0-.21.02-.4.01-.19.02-.4.04-.65.01-.24.03-.5.04-.77.02-.27.03-.52.04-.75.01-.24.02-.44.04-.62.01-.18.02-.3.04-.36.04-.49.08-.97.13-1.42s.11-.92.18-1.39c.07-.47.14-.96.23-1.46.09-.5.19-1.04.3-1.62.11-.58.21-1.13.31-1.66s.21-1.03.31-1.52c.11-.49.23-.97.37-1.44s.3-.94.49-1.41c.02-.05.07-.16.14-.32.07-.16.16-.31.27-.47.11-.16.22-.3.35-.42.13-.13.26-.19.4-.19.1,0,.2,0,.32,0s.25,0,.39,0c.14,0,.27.03.4.06.13.03.25.09.36.17.11.08.19.17.26.26.07.1.11.2.13.29.02.1.04.19.04.28,0,.09,0,.17,0,.23,0,.11-.06.32-.18.62-.12.3-.26.71-.43,1.21-.3.88-.59,1.78-.87,2.71-.28.93-.51,1.85-.67,2.76-.06.31-.12.64-.18,1.01-.06.37-.12.74-.17,1.13-.05.39-.1.78-.14,1.18-.04.4-.07.79-.08,1.15.37-.38.75-.8,1.15-1.28.39-.47.88-.94,1.45-1.38.57-.45,1.14-.85,1.7-1.2.56-.35,1.17-.69,1.83-1,1.32-.63,2.54-.94,3.66-.94.68-.02,1.32.09,1.92.31s1.12.51,1.57.87c.45.36.79.76,1.04,1.21.24.44.36.88.35,1.31,0,.28-.17.79-.52,1.52-.17.36-.33.64-.5.83s-.32.36-.45.51c.44-.19.93-.39,1.45-.61.53-.22,1.06-.44,1.6-.67s1.07-.44,1.59-.65c.52-.21,1-.4,1.43-.58.07-.03.22-.09.43-.18s.51-.21.88-.37.72-.31,1.04-.45c.32-.14.62-.27.9-.38.55-.24.87-.35.97-.35.22,0,.37.06.46.18.09.12.13.24.13.38Z"/><path class="b" d="m122.3,69.43c0,.37-.34.95-1.02,1.73-.13.15-.31.33-.55.54-.23.21-.49.42-.78.65-.29.22-.59.45-.9.68-.31.23-.62.45-.92.64-.45.3-.95.59-1.5.87-.54.28-1.12.54-1.72.77s-1.23.41-1.87.55c-.64.14-1.27.21-1.89.21-.83,0-1.6-.1-2.31-.29s-1.34-.5-1.87-.91c-.53-.41-.95-.92-1.26-1.54s-.46-1.34-.46-2.18c0-.57.04-1.17.13-1.8.08-.62.19-1.25.32-1.88.13-.63.28-1.25.44-1.87.16-.62.33-1.21.49-1.78.11-.39.2-.71.28-.97.08-.25.15-.48.21-.7.06-.21.11-.43.16-.64.05-.22.11-.48.18-.81.05-.22.09-.41.13-.58.04-.17.07-.31.1-.42.05-.19.13-.37.24-.54.11-.17.26-.33.43-.46s.37-.24.6-.32c.23-.08.48-.12.75-.12.57,0,1,.18,1.27.53-.07.24-.15.48-.22.7-.08.22-.15.46-.21.71-.3.99-.54,1.79-.74,2.4-.19.61-.33,1.04-.41,1.29-.14.5-.3,1.03-.46,1.6-.16.57-.31,1.16-.45,1.75-.14.6-.25,1.19-.33,1.77-.08.58-.13,1.12-.13,1.62,0,.54.07,1.04.2,1.48.13.44.34.82.64,1.14.29.31.67.56,1.13.73s1.02.26,1.68.26c.72,0,1.42-.1,2.12-.31.69-.21,1.36-.47,2-.79s1.25-.68,1.82-1.07c.57-.39,1.1-.76,1.58-1.12.38-.3.72-.56,1-.77.29-.22.53-.4.72-.55.16-.12.33-.24.53-.37.2-.12.38-.19.55-.19.19,0,.29.11.29.34Z"/><path class="b" d="m145.88,66.7c0,.13-.04.27-.13.41-.09.14-.21.27-.35.4-.14.13-.3.25-.48.37-.17.11-.35.21-.53.28-.42.18-1.01.34-1.78.48s-1.73.21-2.86.21c-.91,0-1.82-.08-2.74-.23s-1.81-.41-2.66-.76c.28.28.45.54.53.79s.12.55.12.9c0,.62-.24,1.28-.72,1.98-.47.71-1.07,1.36-1.81,1.97-.74.61-1.52,1.11-2.35,1.51-.47.23-.98.43-1.53.59s-1.14.31-1.75.41c-.61.11-1.24.18-1.9.24-.66.05-1.32.08-1.99.08-.47,0-.92-.1-1.36-.29s-.84-.44-1.18-.72c-.35-.28-.62-.58-.83-.91-.21-.32-.31-.61-.31-.87,0-.64.13-1.25.39-1.83.26-.58.6-1.15,1.04-1.7s.94-1.08,1.52-1.6c.57-.52,1.18-1.04,1.83-1.56.36-.29.77-.58,1.23-.85.46-.28.94-.53,1.44-.75s1.01-.4,1.52-.54c.51-.14,1-.21,1.47-.21.38,0,.71.04.99.11.27.07.54.17.78.3s.5.29.75.49.55.42.89.66c.11.07.4.17.89.31.48.14,1.06.27,1.72.4.66.13,1.36.24,2.09.34.73.1,1.39.15,1.99.15s1.15-.01,1.65-.04c.5-.03.99-.07,1.46-.14.47-.06.94-.15,1.41-.26.47-.11.97-.24,1.51-.4.05.12.07.22.07.31Zm-13.4,2.83c.01-.22-.01-.47-.07-.75-.06-.28-.16-.54-.31-.79-.15-.25-.35-.45-.59-.61s-.55-.22-.91-.19c-.55-.14-1-.29-1.36-.45-.36-.16-.63-.24-.83-.24-.14,0-.3.03-.47.09-.17.06-.34.14-.52.24-.18.1-.36.22-.55.36-.19.14-.37.28-.55.43-.36.31-.69.58-1,.84-.31.25-.59.5-.86.75-.27.25-.53.51-.78.78-.25.27-.5.58-.75.91-.11.14-.2.31-.29.51-.08.2-.16.4-.22.61-.06.21-.1.42-.13.62s-.04.39-.04.56c0,.1.05.23.16.37s.25.29.42.42.37.25.59.35c.22.09.44.14.65.14.61,0,1.13-.02,1.56-.05s.83-.1,1.19-.19c.36-.09.73-.21,1.1-.37.37-.16.8-.36,1.29-.61.24-.12.48-.25.71-.41.23-.16.46-.32.69-.5s.44-.36.65-.54c.2-.18.39-.37.57-.55.12-.12.22-.26.3-.44s.15-.35.2-.52c.05-.17.08-.33.1-.47.02-.14.03-.24.03-.31Z"/><path class="b" d="m155.24,67.52c-.1.54-.17,1.14-.23,1.8-.06.66-.14,1.39-.23,2.2-.04.3-.08.64-.14,1.01s-.13.77-.2,1.17-.14.79-.22,1.18-.14.74-.22,1.05c-.11.46-.25.93-.41,1.42-.17.49-.38.98-.63,1.45-.25.48-.56.93-.92,1.37s-.8.81-1.3,1.14c-.5.33-1.09.58-1.75.78-.66.19-1.42.29-2.27.29-.54,0-1.08-.04-1.63-.13-.55-.09-1.09-.2-1.62-.35s-1.05-.32-1.54-.52c-.5-.2-.95-.41-1.37-.64-.47-.25-.88-.51-1.24-.77s-.66-.53-.9-.81c-.24-.27-.36-.53-.36-.79,0-.24.12-.37.36-.37.08,0,.17.03.27.08.05.02.1.06.17.11.07.05.13.09.19.14s.11.08.16.12c.05.04.08.06.09.06,2.31,1.4,4.77,2.1,7.39,2.1.87,0,1.59-.13,2.14-.39.56-.26,1-.6,1.33-1.02.33-.42.58-.89.75-1.4.17-.51.32-1.02.44-1.52.07-.31.13-.63.19-.94.05-.31.1-.64.15-.98s.1-.7.14-1.08.1-.78.16-1.22c-.49.35-1.11.71-1.86,1.1s-1.55.75-2.4,1.08c-.85.33-1.72.6-2.58.82-.87.22-1.67.32-2.4.32-.31,0-.6-.05-.86-.14-.26-.09-.49-.23-.68-.41s-.34-.39-.46-.65c-.11-.25-.17-.54-.17-.85,0-.46.12-.94.36-1.46.24-.52.54-1.03.92-1.55.37-.51.78-1.01,1.24-1.5.45-.48.9-.92,1.33-1.3.43-.38.95-.77,1.56-1.18s1.26-.79,1.96-1.13c.7-.34,1.43-.62,2.18-.84.75-.22,1.49-.33,2.21-.33.63,0,1.23.09,1.78.28.55.18.97.46,1.27.83.07.09.11.21.13.38.01.17,0,.36-.02.58-.02.22-.06.45-.11.7-.05.25-.1.49-.14.74Zm-2.94,2.14c.05-.24.1-.52.14-.85s.11-.75.18-1.24c.04-.26.07-.52.12-.78.04-.26.03-.47-.04-.64-.1-.23-.28-.37-.56-.44-.28-.06-.72-.09-1.35-.09-.57.24-1.15.53-1.71.87-.57.35-1.11.72-1.63,1.12-.52.4-1,.81-1.44,1.24-.44.43-.83.85-1.17,1.25-.37.45-.66.89-.88,1.34-.22.44-.32.82-.32,1.12,0,.13.04.24.12.33.08.09.18.15.31.21.13.05.27.09.43.11.16.02.33.03.49.03.42,0,.87-.06,1.35-.18.48-.12.97-.26,1.44-.44.48-.17.93-.35,1.36-.55.43-.19.8-.37,1.11-.52.13-.06.31-.16.52-.29.22-.13.43-.29.65-.46s.41-.36.57-.56c.17-.2.27-.39.3-.58Z"/><path class="b" d="m163.55,74.08c0,.16-.05.42-.16.78-.06.18-.44.46-1.13.84-.71.37-1.2.55-1.47.55-.32,0-.58-.03-.77-.08-.19-.05-.34-.14-.45-.26-.11-.12-.18-.27-.21-.45-.03-.18-.04-.4-.04-.66,0-.46.02-.77.07-.95.05-.35.9-.53,2.55-.53h.39c.35,0,.7.13,1.06.4.11.07.16.19.16.36Z"/><path class="b" d="m209.06,68.36c0,.07-.02.16-.06.27-.04.11-.1.23-.16.35-.07.12-.14.25-.23.38-.09.13-.19.25-.3.35-.2.21-.47.44-.8.71s-.69.54-1.08.83c-.39.29-.82.57-1.26.86-.45.29-.89.55-1.32.78-.35.19-.75.4-1.2.62-.45.23-.93.44-1.44.64-.5.2-1.02.36-1.54.49-.53.13-1.02.19-1.49.19-.42,0-.8-.04-1.14-.12-.34-.08-.65-.23-.93-.44-.28-.22-.53-.51-.74-.89s-.4-.86-.56-1.46c-.07-.25-.13-.52-.19-.81-.05-.29-.11-.57-.16-.85-.05-.28-.1-.55-.15-.82-.05-.26-.1-.49-.17-.69s-.14-.36-.22-.48c-.08-.12-.16-.18-.26-.18-.16,0-.37.09-.65.26-.28.17-.61.42-.99.75-.38.33-.79.72-1.24,1.17-.45.46-.92.97-1.41,1.53-.97,1.13-1.79,1.99-2.46,2.58-.67.59-1.28.88-1.83.88-.83,0-1.38-.25-1.67-.76-.26-.52-.42-1.39-.48-2.6-.04-1.18-.16-2.1-.39-2.74-.22-.64-.51-.96-.85-.96-.22,0-.53.13-.94.38s-.88.61-1.4,1.05c-.52.45-1.09.98-1.7,1.58s-1.22,1.27-1.83,1.98c-.17.19-.36.4-.57.65-.22.24-.43.49-.65.74s-.44.48-.65.7c-.21.22-.39.4-.55.54-.35.33-.77.5-1.26.5-.91,0-1.51-.31-1.79-.92-.07-.16-.13-.28-.17-.38-.04-.1-.07-.2-.1-.29-.02-.1-.04-.21-.04-.32,0-.12,0-.27,0-.46,0-.31.02-.6.04-.87.03-.26.07-.53.12-.79.05-.27.11-.55.18-.86.07-.31.14-.66.22-1.07.06-.34.11-.7.16-1.08.05-.38.09-.76.13-1.12.04-.37.08-.7.13-1.01.04-.31.1-.55.17-.73.04-.09.12-.2.25-.33.13-.12.28-.25.46-.36.17-.11.36-.21.55-.29.19-.08.36-.12.5-.12.25,0,.46.04.62.11.16.07.29.17.4.3.1.13.17.27.22.44.04.17.06.34.06.52s-.03.42-.08.71c-.05.28-.12.59-.21.92-.08.33-.18.67-.28,1.03-.1.35-.2.69-.3,1.01-.1.32-.18.62-.26.89-.08.27-.13.49-.17.67-.11.43-.18.78-.22,1.03-.04.25-.05.46-.05.62.16-.1.35-.25.59-.46.24-.2.5-.44.79-.72s.59-.58.91-.91c.32-.33.64-.67.96-1.01.23-.24.48-.52.76-.82.28-.31.57-.61.88-.92.31-.31.61-.6.91-.88.3-.27.57-.51.83-.7.5-.38,1.02-.66,1.56-.86s1.1-.29,1.69-.29,1.07.15,1.5.44c.42.29.71.68.85,1.15.07.22.13.47.17.76.04.29.08.59.12.9.04.31.07.63.1.94.03.31.06.61.1.89.04.28.09.5.15.68.07.18.13.32.21.43.07.11.14.18.2.22.06.04.11.06.14.06.23,0,.61-.31,1.15-.93.27-.31.58-.66.92-1.05.33-.38.71-.81,1.11-1.27.41-.46.84-.9,1.31-1.32s.92-.8,1.37-1.12c.45-.33.87-.58,1.26-.78.4-.19.73-.29,1-.29.18,0,.36.01.56.04.19.02.38.06.56.11.18.05.34.1.48.17.14.07.24.14.31.22.18.19.31.4.39.64.08.24.13.51.17.82.04.31.07.66.1,1.04s.08.8.15,1.27c.17.98.43,1.71.78,2.2.35.48.86.72,1.52.72.25,0,.57-.05.95-.17s.79-.25,1.22-.43c.43-.18.87-.38,1.31-.6.44-.22.85-.45,1.24-.67s.75-.44,1.1-.67.71-.45,1.07-.68c.36-.23.73-.47,1.1-.72.38-.25.78-.52,1.21-.8.14-.09.27-.14.39-.14.18,0,.27.1.27.31Z"/><path class="b" d="m228.59,68.44c0,.12-.13.33-.4.62-.62.59-1.32,1.18-2.09,1.77s-1.59,1.15-2.46,1.68c-.87.53-1.77,1.02-2.71,1.48-.94.46-1.89.86-2.84,1.19s-1.91.59-2.86.77c-.95.18-1.87.27-2.75.26-1.91,0-3.4-.37-4.46-1.09-1.06-.73-1.59-1.83-1.59-3.31,0-1.23.29-2.43.87-3.59s1.57-2.28,2.97-3.36c.26-.19.56-.37.89-.54.33-.17.67-.33,1.04-.46.36-.13.74-.24,1.13-.32.39-.08.78-.12,1.17-.14.1,0,.23,0,.4.02.17.02.35.04.54.08.19.04.38.09.56.15s.32.13.43.22c.33.25.6.51.8.78s.31.56.33.88c.02.36-.04.72-.19,1.07s-.4.71-.75,1.07c-.35.37-.82.74-1.39,1.13s-1.27.81-2.08,1.25c-.51.28-1.08.59-1.71.94s-1.38.7-2.27,1.08c0,.76.35,1.34,1.05,1.74s1.66.59,2.88.59c.68,0,1.37-.06,2.06-.18.69-.12,1.38-.27,2.04-.46s1.32-.41,1.95-.66c.63-.25,1.22-.5,1.77-.76,1.02-.49,1.94-.97,2.76-1.46.83-.48,1.64-.99,2.46-1.52l.97-.64c.59-.34,1.01-.51,1.27-.51.14,0,.22.07.22.22Zm-13.71-2.34c-.01-.12-.04-.23-.08-.35-.04-.11-.11-.21-.19-.3-.08-.09-.18-.16-.29-.21s-.23-.08-.38-.08c-.63.02-1.27.28-1.9.76-.63.48-1.23,1.12-1.79,1.91-.13.17-.25.37-.35.58-.1.22-.2.44-.29.66s-.17.45-.23.67c-.07.22-.12.42-.17.59.62-.31,1.2-.59,1.72-.85.53-.26,1.02-.53,1.47-.8.29-.17.58-.36.88-.56s.57-.41.82-.63.44-.45.58-.68.21-.47.2-.72Z"/></svg>